  0
SECTION
  2
HEADER
  9
$ACADVER
  1
AC1014
  9
$HANDSEED
  5
FFFF
  9
$MEASUREMENT
 70
     1
  0
ENDSEC
  0
SECTION
  2
TABLES
  0
TABLE
  2
VPORT
  5
8
330
0
100
AcDbSymbolTable
 70
     4
  0
VPORT
  5
2E
330
8
100
AcDbSymbolTableRecord
100
AcDbViewportTableRecord
  2
*ACTIVE
 70
     0
 10
0.0
 20
0.0
 11
1.0
 21
1.0
 12
210.0
 22
148.5
 13
0.0
 23
0.0
 14
10.0
 24
10.0
 15
10.0
 25
10.0
 16
0.0
 26
0.0
 36
1.0
 17
0.0
 27
0.0
 37
0.0
 40
341.0
 41
1.24
 42
50.0
 43
0.0
 44
0.0
 50
0.0
 51
0.0
 71
     0
 72
   100
 73
     1
 74
     3
 75
     0
 76
     0
 77
     0
 78
     0
  0
ENDTAB
  0
TABLE
  2
LTYPE
  5
5
330
0
100
AcDbSymbolTable
 70
     1
  0
LTYPE
  5
14
330
5
100
AcDbSymbolTableRecord
100
AcDbLinetypeTableRecord
  2
BYBLOCK
 70
     0
  3

 72
    65
 73
     0
 40
0.0
  0
LTYPE
  5
15
330
5
100
AcDbSymbolTableRecord
100
AcDbLinetypeTableRecord
  2
BYLAYER
 70
     0
  3

 72
    65
 73
     0
 40
0.0
  0
LTYPE
  5
16
330
5
100
AcDbSymbolTableRecord
100
AcDbLinetypeTableRecord
  2
CONTINUOUS
 70
     0
  3
Solid line
 72
    65
 73
     0
 40
0.0
  0
ENDTAB
  0
TABLE
  2
LAYER
  5
2
100
AcDbSymbolTable
 70
4
  0
LAYER
  5
50
100
AcDbSymbolTableRecord
100
AcDbLayerTableRecord
  2
0
 70
0
  6
CONTINUOUS
  0
LAYER
  5
51
100
AcDbSymbolTableRecord
100
AcDbLayerTableRecord
  2
background
 70
0
  6
CONTINUOUS
  0
LAYER
  5
52
100
AcDbSymbolTableRecord
100
AcDbLayerTableRecord
  2
Layer_1
 70
0
  6
CONTINUOUS
  0
LAYER
  5
53
100
AcDbSymbolTableRecord
100
AcDbLayerTableRecord
  2
pcb_overlay
 70
0
  6
CONTINUOUS
  0
ENDTAB
  0
TABLE
  2
STYLE
  5
3
330
0
100
AcDbSymbolTable
 70
     1
  0
STYLE
  5
11
330
3
100
AcDbSymbolTableRecord
100
AcDbTextStyleTableRecord
  2
STANDARD
 70
     0
 40
0.0
 41
1.0
 50
0.0
 71
     0
 42
2.5
  3
txt
  4

  0
ENDTAB
  0
TABLE
  2
VIEW
  5
6
330
0
100
AcDbSymbolTable
 70
     0
  0
ENDTAB
  0
TABLE
  2
UCS
  5
7
330
0
100
AcDbSymbolTable
 70
     0
  0
ENDTAB
  0
TABLE
  2
APPID
  5
9
330
0
100
AcDbSymbolTable
 70
     2
  0
APPID
  5
12
330
9
100
AcDbSymbolTableRecord
100
AcDbRegAppTableRecord
  2
ACAD
 70
     0
  0
ENDTAB
  0
TABLE
  2
DIMSTYLE
  5
A
330
0
100
AcDbSymbolTable
 70
     1
  0
DIMSTYLE
105
27
330
A
100
AcDbSymbolTableRecord
100
AcDbDimStyleTableRecord
  2
ISO-25
 70
     0
  3

  4

  5

  6

  7

 40
1.0
 41
2.5
 42
0.625
 43
3.75
 44
1.25
 45
0.0
 46
0.0
 47
0.0
 48
0.0
140
2.5
141
2.5
142
0.0
143
0.03937007874016
144
1.0
145
0.0
146
1.0
147
0.625
 71
     0
 72
     0
 73
     0
 74
     0
 75
     0
 76
     0
 77
     1
 78
     8
170
     0
171
     3
172
     1
173
     0
174
     0
175
     0
176
     0
177
     0
178
     0
270
     2
271
     2
272
     2
273
     2
274
     3
340
11
275
     0
280
     0
281
     0
282
     0
283
     0
284
     8
285
     0
286
     0
287
     3
288
     0
  0
ENDTAB
  0
TABLE
  2
BLOCK_RECORD
  5
1
330
0
100
AcDbSymbolTable
 70
     1
  0
BLOCK_RECORD
  5
1F
330
1
100
AcDbSymbolTableRecord
100
AcDbBlockTableRecord
  2
*MODEL_SPACE
  0
BLOCK_RECORD
  5
1B
330
1
100
AcDbSymbolTableRecord
100
AcDbBlockTableRecord
  2
*PAPER_SPACE
  0
ENDTAB
  0
ENDSEC
  0
SECTION
  2
BLOCKS
  0
BLOCK
  5
20
330
1F
100
AcDbEntity
  8
0
100
AcDbBlockBegin
  2
*MODEL_SPACE
 70
     0
 10
0.0
 20
0.0
 30
0.0
  3
*MODEL_SPACE
  1

  0
ENDBLK
  5
21
330
1F
100
AcDbEntity
  8
0
100
AcDbBlockEnd
  0
BLOCK
  5
1C
330
1B
100
AcDbEntity
 67
     1
  8
0
100
AcDbBlockBegin
  2
*PAPER_SPACE
  1

  0
ENDBLK
  5
1D
330
1B
100
AcDbEntity
 67
     1
  8
0
100
AcDbBlockEnd
  0
ENDSEC
  0
SECTION
  2
ENTITIES
  0
LINE
  5
100
100
AcDbEntity
  8
background
 62
1
100
AcDbLine
 10
0.269105
 20
11.499772
 30
0.0
 11
8.037282
 21
11.499772
 31
0.0
  0
LINE
  5
101
100
AcDbEntity
  8
background
 62
1
100
AcDbLine
 10
8.037282
 20
11.499772
 30
0.0
 11
8.037282
 21
0.000000
 31
0.0
  0
LINE
  5
102
100
AcDbEntity
  8
background
 62
1
100
AcDbLine
 10
8.037282
 20
0.000000
 30
0.0
 11
0.269105
 21
0.000000
 31
0.0
  0
LINE
  5
103
100
AcDbEntity
  8
background
 62
1
100
AcDbLine
 10
0.269105
 20
0.000000
 30
0.0
 11
0.269105
 21
11.499772
 31
0.0
  0
LINE
  5
104
100
AcDbEntity
  8
Layer_1
 62
1
100
AcDbLine
 10
1.536895
 20
8.029303
 30
0.0
 11
1.361548
 21
7.713594
 31
0.0
  0
LINE
  5
105
100
AcDbEntity
  8
Layer_1
 62
1
100
AcDbLine
 10
1.536895
 20
8.029303
 30
0.0
 11
1.214200
 21
7.867956
 31
0.0
  0
LINE
  5
106
100
AcDbEntity
  8
Layer_1
 62
1
100
AcDbLine
 10
1.536895
 20
8.029303
 30
0.0
 11
1.179145
 21
8.071400
 31
0.0
  0
LINE
  5
107
100
AcDbEntity
  8
Layer_1
 62
1
100
AcDbLine
 10
1.536895
 20
8.029303
 30
0.0
 11
1.263353
 21
8.260803
 31
0.0
  0
LINE
  5
108
100
AcDbEntity
  8
Layer_1
 62
1
100
AcDbLine
 10
1.536895
 20
8.029303
 30
0.0
 11
1.438700
 21
8.373053
 31
0.0
  0
LINE
  5
109
100
AcDbEntity
  8
Layer_1
 62
1
100
AcDbLine
 10
1.536895
 20
8.029303
 30
0.0
 11
1.635145
 21
8.373053
 31
0.0
  0
LINE
  5
10a
100
AcDbEntity
  8
Layer_1
 62
1
100
AcDbLine
 10
1.536895
 20
8.029303
 30
0.0
 11
1.810492
 21
8.260803
 31
0.0
  0
LINE
  5
10b
100
AcDbEntity
  8
Layer_1
 62
1
100
AcDbLine
 10
1.536895
 20
8.029303
 30
0.0
 11
1.894700
 21
8.071400
 31
0.0
  0
LINE
  5
10c
100
AcDbEntity
  8
Layer_1
 62
1
100
AcDbLine
 10
1.536895
 20
8.029303
 30
0.0
 11
1.859603
 21
7.867956
 31
0.0
  0
LINE
  5
10d
100
AcDbEntity
  8
Layer_1
 62
1
100
AcDbLine
 10
1.536895
 20
8.029303
 30
0.0
 11
1.719298
 21
7.713594
 31
0.0
  0
LINE
  5
10e
100
AcDbEntity
  8
Layer_1
 62
1
100
AcDbLine
 10
1.536895
 20
8.029303
 30
0.0
 11
1.382603
 21
7.755706
 31
0.0
  0
LINE
  5
10f
100
AcDbEntity
  8
Layer_1
 62
1
100
AcDbLine
 10
1.536895
 20
8.029303
 30
0.0
 11
1.340506
 21
7.776747
 31
0.0
  0
LINE
  5
110
100
AcDbEntity
  8
Layer_1
 62
1
100
AcDbLine
 10
1.536895
 20
8.029303
 30
0.0
 11
1.305395
 21
7.811803
 31
0.0
  0
LINE
  5
111
100
AcDbEntity
  8
Layer_1
 62
1
100
AcDbLine
 10
1.536895
 20
8.029303
 30
0.0
 11
1.277353
 21
7.846900
 31
0.0
  0
LINE
  5
112
100
AcDbEntity
  8
Layer_1
 62
1
100
AcDbLine
 10
1.536895
 20
8.029303
 30
0.0
 11
1.249298
 21
7.888997
 31
0.0
  0
LINE
  5
113
100
AcDbEntity
  8
Layer_1
 62
1
100
AcDbLine
 10
1.536895
 20
8.029303
 30
0.0
 11
1.235242
 21
7.931108
 31
0.0
  0
LINE
  5
114
100
AcDbEntity
  8
Layer_1
 62
1
100
AcDbLine
 10
1.536895
 20
8.029303
 30
0.0
 11
1.221256
 21
7.980206
 31
0.0
  0
LINE
  5
115
100
AcDbEntity
  8
Layer_1
 62
1
100
AcDbLine
 10
1.536895
 20
8.029303
 30
0.0
 11
1.221256
 21
8.022247
 31
0.0
  0
LINE
  5
116
100
AcDbEntity
  8
Layer_1
 62
1
100
AcDbLine
 10
1.536895
 20
8.029303
 30
0.0
 11
1.221256
 21
8.064344
 31
0.0
  0
LINE
  5
117
100
AcDbEntity
  8
Layer_1
 62
1
100
AcDbLine
 10
1.536895
 20
8.029303
 30
0.0
 11
1.228256
 21
8.106456
 31
0.0
  0
LINE
  5
118
100
AcDbEntity
  8
Layer_1
 62
1
100
AcDbLine
 10
1.536895
 20
8.029303
 30
0.0
 11
1.242298
 21
8.155553
 31
0.0
  0
LINE
  5
119
100
AcDbEntity
  8
Layer_1
 62
1
100
AcDbLine
 10
1.536895
 20
8.029303
 30
0.0
 11
1.263353
 21
8.197650
 31
0.0
  0
LINE
  5
11a
100
AcDbEntity
  8
Layer_1
 62
1
100
AcDbLine
 10
1.536895
 20
8.029303
 30
0.0
 11
1.291395
 21
8.232747
 31
0.0
  0
LINE
  5
11b
100
AcDbEntity
  8
Layer_1
 62
1
100
AcDbLine
 10
1.536895
 20
8.029303
 30
0.0
 11
1.326450
 21
8.267803
 31
0.0
  0
LINE
  5
11c
100
AcDbEntity
  8
Layer_1
 62
1
100
AcDbLine
 10
1.536895
 20
8.029303
 30
0.0
 11
1.361548
 21
8.295844
 31
0.0
  0
LINE
  5
11d
100
AcDbEntity
  8
Layer_1
 62
1
100
AcDbLine
 10
1.536895
 20
8.029303
 30
0.0
 11
1.403645
 21
8.316900
 31
0.0
  0
LINE
  5
11e
100
AcDbEntity
  8
Layer_1
 62
1
100
AcDbLine
 10
1.536895
 20
8.029303
 30
0.0
 11
1.445700
 21
8.337956
 31
0.0
  0
LINE
  5
11f
100
AcDbEntity
  8
Layer_1
 62
1
100
AcDbLine
 10
1.536895
 20
8.029303
 30
0.0
 11
1.494853
 21
8.344956
 31
0.0
  0
LINE
  5
120
100
AcDbEntity
  8
Layer_1
 62
1
100
AcDbLine
 10
1.536895
 20
8.029303
 30
0.0
 11
1.536895
 21
8.351997
 31
0.0
  0
LINE
  5
121
100
AcDbEntity
  8
Layer_1
 62
1
100
AcDbLine
 10
1.536895
 20
8.029303
 30
0.0
 11
1.578992
 21
8.344956
 31
0.0
  0
LINE
  5
122
100
AcDbEntity
  8
Layer_1
 62
1
100
AcDbLine
 10
1.536895
 20
8.029303
 30
0.0
 11
1.628103
 21
8.337956
 31
0.0
  0
LINE
  5
123
100
AcDbEntity
  8
Layer_1
 62
1
100
AcDbLine
 10
1.536895
 20
8.029303
 30
0.0
 11
1.670200
 21
8.316900
 31
0.0
  0
LINE
  5
124
100
AcDbEntity
  8
Layer_1
 62
1
100
AcDbLine
 10
1.536895
 20
8.029303
 30
0.0
 11
1.712298
 21
8.295844
 31
0.0
  0
LINE
  5
125
100
AcDbEntity
  8
Layer_1
 62
1
100
AcDbLine
 10
1.536895
 20
8.029303
 30
0.0
 11
1.747353
 21
8.267803
 31
0.0
  0
LINE
  5
126
100
AcDbEntity
  8
Layer_1
 62
1
100
AcDbLine
 10
1.536895
 20
8.029303
 30
0.0
 11
1.782450
 21
8.232747
 31
0.0
  0
LINE
  5
127
100
AcDbEntity
  8
Layer_1
 62
1
100
AcDbLine
 10
1.536895
 20
8.029303
 30
0.0
 11
1.810492
 21
8.197650
 31
0.0
  0
LINE
  5
128
100
AcDbEntity
  8
Layer_1
 62
1
100
AcDbLine
 10
1.536895
 20
8.029303
 30
0.0
 11
1.831548
 21
8.155553
 31
0.0
  0
LINE
  5
129
100
AcDbEntity
  8
Layer_1
 62
1
100
AcDbLine
 10
1.536895
 20
8.029303
 30
0.0
 11
1.845603
 21
8.106456
 31
0.0
  0
LINE
  5
12a
100
AcDbEntity
  8
Layer_1
 62
1
100
AcDbLine
 10
1.536895
 20
8.029303
 30
0.0
 11
1.852603
 21
8.064344
 31
0.0
  0
LINE
  5
12b
100
AcDbEntity
  8
Layer_1
 62
1
100
AcDbLine
 10
1.536895
 20
8.029303
 30
0.0
 11
1.852603
 21
8.022247
 31
0.0
  0
LINE
  5
12c
100
AcDbEntity
  8
Layer_1
 62
1
100
AcDbLine
 10
1.536895
 20
8.029303
 30
0.0
 11
1.852603
 21
7.980206
 31
0.0
  0
LINE
  5
12d
100
AcDbEntity
  8
Layer_1
 62
1
100
AcDbLine
 10
1.536895
 20
8.029303
 30
0.0
 11
1.838548
 21
7.931108
 31
0.0
  0
LINE
  5
12e
100
AcDbEntity
  8
Layer_1
 62
1
100
AcDbLine
 10
1.536895
 20
8.029303
 30
0.0
 11
1.824548
 21
7.888997
 31
0.0
  0
LINE
  5
12f
100
AcDbEntity
  8
Layer_1
 62
1
100
AcDbLine
 10
1.536895
 20
8.029303
 30
0.0
 11
1.796506
 21
7.846900
 31
0.0
  0
LINE
  5
130
100
AcDbEntity
  8
Layer_1
 62
1
100
AcDbLine
 10
1.536895
 20
8.029303
 30
0.0
 11
1.768395
 21
7.811803
 31
0.0
  0
LINE
  5
131
100
AcDbEntity
  8
Layer_1
 62
1
100
AcDbLine
 10
1.536895
 20
8.029303
 30
0.0
 11
1.733353
 21
7.776747
 31
0.0
  0
LINE
  5
132
100
AcDbEntity
  8
Layer_1
 62
1
100
AcDbLine
 10
1.536895
 20
8.029303
 30
0.0
 11
1.698242
 21
7.755706
 31
0.0
  0
LINE
  5
133
100
AcDbEntity
  8
Layer_1
 62
1
100
AcDbLine
 10
1.494853
 20
8.029303
 30
0.0
 11
1.578992
 21
8.029303
 31
0.0
  0
LINE
  5
134
100
AcDbEntity
  8
Layer_1
 62
1
100
AcDbLine
 10
1.536895
 20
7.987206
 30
0.0
 11
1.536895
 21
8.071400
 31
0.0
  0
SPLINE
  5
135
100
AcDbEntity
  8
Layer_1
 62
1
100
AcDbSpline
 70
0
 71
3
 72
19
 73
15
 74
13
 40
0.000000
 40
0.000000
 40
0.000000
 40
0.000000
 40
0.056881
 40
0.108680
 40
0.165561
 40
0.222480
 40
0.274289
 40
0.331171
 40
0.388090
 40
0.439909
 40
0.496829
 40
0.553710
 40
0.605520
 40
0.662438
 40
0.662438
 40
0.662438
 40
0.662438
 10
1.431700
 20
8.029303
 30
0.0
 10
1.433954
 20
8.048630
 30
0.0
 10
1.438260
 20
8.085556
 30
0.0
 10
1.480911
 20
8.126993
 30
0.0
 10
1.536832
 20
8.138424
 30
0.0
 10
1.593196
 20
8.126998
 30
0.0
 10
1.634634
 20
8.085562
 30
0.0
 10
1.646075
 20
8.029290
 30
0.0
 10
1.634639
 20
7.973014
 30
0.0
 10
1.593202
 20
7.931553
 30
0.0
 10
1.536832
 20
7.920126
 30
0.0
 10
1.480906
 20
7.931558
 30
0.0
 10
1.438254
 20
7.973019
 30
0.0
 10
1.433952
 20
8.009963
 30
0.0
 10
1.431700
 20
8.029303
 30
0.0
 11
1.431700
 21
8.029303
 31
0.0
 11
1.444951
 21
8.084619
 31
0.0
 11
1.481579
 21
8.121246
 31
0.0
 11
1.536895
 21
8.134497
 31
0.0
 11
1.592250
 21
8.121246
 31
0.0
 11
1.628892
 21
8.084619
 31
0.0
 11
1.642145
 21
8.029303
 31
0.0
 11
1.628892
 21
7.973948
 31
0.0
 11
1.592250
 21
7.937306
 31
0.0
 11
1.536895
 21
7.924053
 31
0.0
 11
1.481579
 21
7.937306
 31
0.0
 11
1.444951
 21
7.973948
 31
0.0
 11
1.431700
 21
8.029303
 31
0.0
  0
LINE
  5
136
100
AcDbEntity
  8
Layer_1
 62
7
100
AcDbLine
 10
1.545256
 20
8.027136
 30
0.0
 11
1.545256
 21
8.027136
 31
0.0
  0
SPLINE
  5
137
100
AcDbEntity
  8
Layer_1
 62
7
100
AcDbSpline
 70
0
 71
3
 72
19
 73
15
 74
13
 40
0.000000
 40
0.000000
 40
0.000000
 40
0.000000
 40
0.004461
 40
0.009016
 40
0.013919
 40
0.018821
 40
0.023376
 40
0.027838
 40
0.032333
 40
0.036893
 40
0.041795
 40
0.046697
 40
0.051257
 40
0.055753
 40
0.055753
 40
0.055753
 40
0.055753
 10
1.545256
 20
8.027136
 30
0.0
 10
1.544983
 20
8.025632
 30
0.0
 10
1.544430
 20
8.022594
 30
0.0
 10
1.540608
 20
8.019419
 30
0.0
 10
1.535822
 20
8.018273
 30
0.0
 10
1.530975
 20
8.019419
 30
0.0
 10
1.527322
 20
8.022594
 30
0.0
 10
1.525896
 20
8.027147
 30
0.0
 10
1.527315
 20
8.031706
 30
0.0
 10
1.530971
 20
8.034898
 30
0.0
 10
1.535822
 20
8.036039
 30
0.0
 10
1.540611
 20
8.034898
 30
0.0
 10
1.544438
 20
8.031706
 30
0.0
 10
1.544985
 20
8.028652
 30
0.0
 10
1.545256
 20
8.027136
 30
0.0
 11
1.545256
 21
8.027136
 31
0.0
 11
1.543965
 21
8.022866
 31
0.0
 11
1.540575
 21
8.019823
 31
0.0
 11
1.535812
 21
8.018664
 31
0.0
 11
1.531048
 21
8.019823
 31
0.0
 11
1.527658
 21
8.022866
 31
0.0
 11
1.526367
 21
8.027136
 31
0.0
 11
1.527658
 21
8.031442
 31
0.0
 11
1.531048
 21
8.034492
 31
0.0
 11
1.535812
 21
8.035650
 31
0.0
 11
1.540575
 21
8.034492
 31
0.0
 11
1.543965
 21
8.031442
 31
0.0
 11
1.545256
 21
8.027136
 31
0.0
  0
LINE
  5
138
100
AcDbEntity
  8
Layer_1
 62
1
100
AcDbLine
 10
1.213121
 20
9.260743
 30
0.0
 11
1.306051
 21
9.260743
 31
0.0
  0
LINE
  5
139
100
AcDbEntity
  8
Layer_1
 62
1
100
AcDbLine
 10
1.259607
 20
9.214256
 30
0.0
 11
1.259607
 21
9.307243
 31
0.0
  0
SPLINE
  5
13a
100
AcDbEntity
  8
Layer_1
 62
1
100
AcDbSpline
 70
0
 71
3
 72
19
 73
15
 74
13
 40
0.000000
 40
0.000000
 40
0.000000
 40
0.000000
 40
0.062845
 40
0.120074
 40
0.182949
 40
0.245779
 40
0.302976
 40
0.365816
 40
0.428650
 40
0.485850
 40
0.548681
 40
0.611557
 40
0.668788
 40
0.731627
 40
0.731627
 40
0.731627
 40
0.731627
 10
1.143343
 20
9.260743
 30
0.0
 10
1.145831
 20
9.282097
 30
0.0
 10
1.150586
 20
9.322897
 30
0.0
 10
1.197732
 20
9.368672
 30
0.0
 10
1.259507
 20
9.381284
 30
0.0
 10
1.321762
 20
9.368673
 30
0.0
 10
1.367487
 20
9.322881
 30
0.0
 10
1.380091
 20
9.260744
 30
0.0
 10
1.367485
 20
9.198608
 30
0.0
 10
1.321763
 20
9.152816
 30
0.0
 10
1.259507
 20
9.140199
 30
0.0
 10
1.197731
 20
9.152816
 30
0.0
 10
1.150588
 20
9.198593
 30
0.0
 10
1.145832
 20
9.239391
 30
0.0
 10
1.143343
 20
9.260743
 30
0.0
 11
1.143343
 21
9.260743
 31
0.0
 11
1.157982
 21
9.321858
 31
0.0
 11
1.198458
 21
9.362317
 31
0.0
 11
1.259607
 21
9.376951
 31
0.0
 11
1.320708
 21
9.362317
 31
0.0
 11
1.361140
 21
9.321858
 31
0.0
 11
1.375759
 21
9.260743
 31
0.0
 11
1.361140
 21
9.199633
 31
0.0
 11
1.320708
 21
9.159172
 31
0.0
 11
1.259607
 21
9.144534
 31
0.0
 11
1.198458
 21
9.159172
 31
0.0
 11
1.157982
 21
9.199633
 31
0.0
 11
1.143343
 21
9.260743
 31
0.0
  0
LINE
  5
13b
100
AcDbEntity
  8
Layer_1
 62
1
100
AcDbLine
 10
1.213131
 20
6.810096
 30
0.0
 11
1.306061
 21
6.810096
 31
0.0
  0
LINE
  5
13c
100
AcDbEntity
  8
Layer_1
 62
1
100
AcDbLine
 10
1.259617
 20
6.763652
 30
0.0
 11
1.259617
 21
6.856652
 31
0.0
  0
LINE
  5
13d
100
AcDbEntity
  8
Layer_1
 62
1
100
AcDbLine
 10
1.096669
 20
6.092592
 30
0.0
 11
0.494238
 21
6.092592
 31
0.0
  0
LINE
  5
13e
100
AcDbEntity
  8
Layer_1
 62
1
100
AcDbLine
 10
0.494238
 20
6.092592
 30
0.0
 11
0.494238
 21
11.135821
 31
0.0
  0
LINE
  5
13f
100
AcDbEntity
  8
Layer_1
 62
1
100
AcDbLine
 10
0.494238
 20
11.135821
 30
0.0
 11
2.162439
 21
11.135821
 31
0.0
  0
LINE
  5
140
100
AcDbEntity
  8
Layer_1
 62
1
100
AcDbLine
 10
2.162439
 20
11.135821
 30
0.0
 11
2.162439
 21
6.092592
 31
0.0
  0
LINE
  5
141
100
AcDbEntity
  8
Layer_1
 62
1
100
AcDbLine
 10
2.162439
 20
6.092592
 30
0.0
 11
0.494238
 21
6.092592
 31
0.0
  0
SPLINE
  5
142
100
AcDbEntity
  8
Layer_1
 62
1
100
AcDbSpline
 70
0
 71
3
 72
19
 73
15
 74
13
 40
0.000000
 40
0.000000
 40
0.000000
 40
0.000000
 40
0.062869
 40
0.120089
 40
0.182962
 40
0.245788
 40
0.302977
 40
0.365841
 40
0.428637
 40
0.485827
 40
0.548657
 40
0.611532
 40
0.668754
 40
0.731554
 40
0.731554
 40
0.731554
 40
0.731554
 10
1.143353
 20
6.810096
 30
0.0
 10
1.145839
 20
6.831460
 30
0.0
 10
1.150587
 20
6.872267
 30
0.0
 10
1.197745
 20
6.918041
 30
0.0
 10
1.259517
 20
6.930630
 30
0.0
 10
1.321769
 20
6.918041
 30
0.0
 10
1.367506
 20
6.872252
 30
0.0
 10
1.380100
 20
6.810118
 30
0.0
 10
1.367489
 20
6.747992
 30
0.0
 10
1.321767
 20
6.702224
 30
0.0
 10
1.259517
 20
6.689608
 30
0.0
 10
1.197747
 20
6.702225
 30
0.0
 10
1.150605
 20
6.747976
 30
0.0
 10
1.145844
 20
6.788758
 30
0.0
 10
1.143353
 20
6.810096
 30
0.0
 11
1.143353
 21
6.810096
 31
0.0
 11
1.157992
 21
6.871237
 31
0.0
 11
1.198468
 21
6.911683
 31
0.0
 11
1.259617
 21
6.926304
 31
0.0
 11
1.320718
 21
6.911683
 31
0.0
 11
1.361150
 21
6.871237
 31
0.0
 11
1.375770
 21
6.810096
 31
0.0
 11
1.361150
 21
6.749026
 31
0.0
 11
1.320718
 21
6.708579
 31
0.0
 11
1.259617
 21
6.693943
 31
0.0
 11
1.198468
 21
6.708579
 31
0.0
 11
1.157992
 21
6.749026
 31
0.0
 11
1.143353
 21
6.810096
 31
0.0
  0
LINE
  5
143
100
AcDbEntity
  8
Layer_1
 62
1
100
AcDbLine
 10
1.303218
 20
11.010303
 30
0.0
 11
1.303218
 21
11.010303
 31
0.0
  0
SPLINE
  5
144
100
AcDbEntity
  8
Layer_1
 62
1
100
AcDbSpline
 70
0
 71
3
 72
19
 73
15
 74
13
 40
0.000000
 40
0.000000
 40
0.000000
 40
0.000000
 40
0.004968
 40
0.010009
 40
0.015421
 40
0.020828
 40
0.025852
 40
0.030816
 40
0.035784
 40
0.040812
 40
0.046220
 40
0.051633
 40
0.056679
 40
0.061650
 40
0.061650
 40
0.061650
 40
0.061650
 10
1.303218
 20
11.010303
 30
0.0
 10
1.302919
 20
11.008628
 30
0.0
 10
1.302316
 20
11.005254
 30
0.0
 10
1.298103
 20
11.001712
 30
0.0
 10
1.292815
 20
11.000439
 30
0.0
 10
1.287462
 20
11.001707
 30
0.0
 10
1.283452
 20
11.005261
 30
0.0
 10
1.281916
 20
11.010305
 30
0.0
 10
1.283453
 20
11.015349
 30
0.0
 10
1.287460
 20
11.018910
 30
0.0
 10
1.292815
 20
11.020183
 30
0.0
 10
1.298105
 20
11.018905
 30
0.0
 10
1.302315
 20
11.015356
 30
0.0
 10
1.302919
 20
11.011979
 30
0.0
 10
1.303218
 20
11.010303
 30
0.0
 11
1.303218
 21
11.010303
 31
0.0
 11
1.301795
 21
11.005544
 31
0.0
 11
1.298058
 21
11.002160
 31
0.0
 11
1.292801
 21
11.000873
 31
0.0
 11
1.287550
 21
11.002160
 31
0.0
 11
1.283835
 21
11.005544
 31
0.0
 11
1.282426
 21
11.010303
 31
0.0
 11
1.283835
 21
11.015067
 31
0.0
 11
1.287550
 21
11.018457
 31
0.0
 11
1.292801
 21
11.019748
 31
0.0
 11
1.298058
 21
11.018457
 31
0.0
 11
1.301795
 21
11.015067
 31
0.0
 11
1.303218
 21
11.010303
 31
0.0
  0
LINE
  5
145
100
AcDbEntity
  8
Layer_1
 62
1
100
AcDbLine
 10
1.226619
 20
6.234109
 30
0.0
 11
1.226619
 21
6.234109
 31
0.0
  0
LINE
  5
146
100
AcDbEntity
  8
Layer_1
 62
1
100
AcDbLine
 10
1.536901
 20
9.816923
 30
0.0
 11
1.361554
 21
9.501215
 31
0.0
  0
LINE
  5
147
100
AcDbEntity
  8
Layer_1
 62
1
100
AcDbLine
 10
1.536901
 20
9.816923
 30
0.0
 11
1.214207
 21
9.655576
 31
0.0
  0
LINE
  5
148
100
AcDbEntity
  8
Layer_1
 62
1
100
AcDbLine
 10
1.536901
 20
9.816923
 30
0.0
 11
1.179151
 21
9.859020
 31
0.0
  0
LINE
  5
149
100
AcDbEntity
  8
Layer_1
 62
1
100
AcDbLine
 10
1.536901
 20
9.816923
 30
0.0
 11
1.263360
 21
10.048423
 31
0.0
  0
LINE
  5
14a
100
AcDbEntity
  8
Layer_1
 62
1
100
AcDbLine
 10
1.536901
 20
9.816923
 30
0.0
 11
1.438707
 21
10.160673
 31
0.0
  0
LINE
  5
14b
100
AcDbEntity
  8
Layer_1
 62
1
100
AcDbLine
 10
1.536901
 20
9.816923
 30
0.0
 11
1.635151
 21
10.160673
 31
0.0
  0
LINE
  5
14c
100
AcDbEntity
  8
Layer_1
 62
1
100
AcDbLine
 10
1.536901
 20
9.816923
 30
0.0
 11
1.810498
 21
10.048423
 31
0.0
  0
LINE
  5
14d
100
AcDbEntity
  8
Layer_1
 62
1
100
AcDbLine
 10
1.536901
 20
9.816923
 30
0.0
 11
1.894707
 21
9.859020
 31
0.0
  0
LINE
  5
14e
100
AcDbEntity
  8
Layer_1
 62
1
100
AcDbLine
 10
1.536901
 20
9.816923
 30
0.0
 11
1.859610
 21
9.655576
 31
0.0
  0
LINE
  5
14f
100
AcDbEntity
  8
Layer_1
 62
1
100
AcDbLine
 10
1.536901
 20
9.816923
 30
0.0
 11
1.719304
 21
9.501215
 31
0.0
  0
LINE
  5
150
100
AcDbEntity
  8
Layer_1
 62
1
100
AcDbLine
 10
1.536901
 20
9.816923
 30
0.0
 11
1.382610
 21
9.543326
 31
0.0
  0
LINE
  5
151
100
AcDbEntity
  8
Layer_1
 62
1
100
AcDbLine
 10
1.536901
 20
9.816923
 30
0.0
 11
1.340512
 21
9.564368
 31
0.0
  0
LINE
  5
152
100
AcDbEntity
  8
Layer_1
 62
1
100
AcDbLine
 10
1.536901
 20
9.816923
 30
0.0
 11
1.305401
 21
9.599423
 31
0.0
  0
LINE
  5
153
100
AcDbEntity
  8
Layer_1
 62
1
100
AcDbLine
 10
1.536901
 20
9.816923
 30
0.0
 11
1.277360
 21
9.634520
 31
0.0
  0
LINE
  5
154
100
AcDbEntity
  8
Layer_1
 62
1
100
AcDbLine
 10
1.536901
 20
9.816923
 30
0.0
 11
1.249304
 21
9.676618
 31
0.0
  0
LINE
  5
155
100
AcDbEntity
  8
Layer_1
 62
1
100
AcDbLine
 10
1.536901
 20
9.816923
 30
0.0
 11
1.235248
 21
9.718729
 31
0.0
  0
LINE
  5
156
100
AcDbEntity
  8
Layer_1
 62
1
100
AcDbLine
 10
1.536901
 20
9.816923
 30
0.0
 11
1.221262
 21
9.767826
 31
0.0
  0
LINE
  5
157
100
AcDbEntity
  8
Layer_1
 62
1
100
AcDbLine
 10
1.536901
 20
9.816923
 30
0.0
 11
1.221262
 21
9.809868
 31
0.0
  0
LINE
  5
158
100
AcDbEntity
  8
Layer_1
 62
1
100
AcDbLine
 10
1.536901
 20
9.816923
 30
0.0
 11
1.221262
 21
9.851965
 31
0.0
  0
LINE
  5
159
100
AcDbEntity
  8
Layer_1
 62
1
100
AcDbLine
 10
1.536901
 20
9.816923
 30
0.0
 11
1.228262
 21
9.894076
 31
0.0
  0
LINE
  5
15a
100
AcDbEntity
  8
Layer_1
 62
1
100
AcDbLine
 10
1.536901
 20
9.816923
 30
0.0
 11
1.242304
 21
9.943173
 31
0.0
  0
LINE
  5
15b
100
AcDbEntity
  8
Layer_1
 62
1
100
AcDbLine
 10
1.536901
 20
9.816923
 30
0.0
 11
1.263360
 21
9.985270
 31
0.0
  0
LINE
  5
15c
100
AcDbEntity
  8
Layer_1
 62
1
100
AcDbLine
 10
1.536901
 20
9.816923
 30
0.0
 11
1.291401
 21
10.020368
 31
0.0
  0
LINE
  5
15d
100
AcDbEntity
  8
Layer_1
 62
1
100
AcDbLine
 10
1.536901
 20
9.816923
 30
0.0
 11
1.326457
 21
10.055423
 31
0.0
  0
LINE
  5
15e
100
AcDbEntity
  8
Layer_1
 62
1
100
AcDbLine
 10
1.536901
 20
9.816923
 30
0.0
 11
1.361554
 21
10.083465
 31
0.0
  0
LINE
  5
15f
100
AcDbEntity
  8
Layer_1
 62
1
100
AcDbLine
 10
1.536901
 20
9.816923
 30
0.0
 11
1.403651
 21
10.104520
 31
0.0
  0
LINE
  5
160
100
AcDbEntity
  8
Layer_1
 62
1
100
AcDbLine
 10
1.536901
 20
9.816923
 30
0.0
 11
1.445707
 21
10.125576
 31
0.0
  0
LINE
  5
161
100
AcDbEntity
  8
Layer_1
 62
1
100
AcDbLine
 10
1.536901
 20
9.816923
 30
0.0
 11
1.494860
 21
10.132576
 31
0.0
  0
LINE
  5
162
100
AcDbEntity
  8
Layer_1
 62
1
100
AcDbLine
 10
1.536901
 20
9.816923
 30
0.0
 11
1.536901
 21
10.139618
 31
0.0
  0
LINE
  5
163
100
AcDbEntity
  8
Layer_1
 62
1
100
AcDbLine
 10
1.536901
 20
9.816923
 30
0.0
 11
1.578998
 21
10.132576
 31
0.0
  0
LINE
  5
164
100
AcDbEntity
  8
Layer_1
 62
1
100
AcDbLine
 10
1.536901
 20
9.816923
 30
0.0
 11
1.628110
 21
10.125576
 31
0.0
  0
LINE
  5
165
100
AcDbEntity
  8
Layer_1
 62
1
100
AcDbLine
 10
1.536901
 20
9.816923
 30
0.0
 11
1.670207
 21
10.104520
 31
0.0
  0
LINE
  5
166
100
AcDbEntity
  8
Layer_1
 62
1
100
AcDbLine
 10
1.536901
 20
9.816923
 30
0.0
 11
1.712304
 21
10.083465
 31
0.0
  0
LINE
  5
167
100
AcDbEntity
  8
Layer_1
 62
1
100
AcDbLine
 10
1.536901
 20
9.816923
 30
0.0
 11
1.747360
 21
10.055423
 31
0.0
  0
LINE
  5
168
100
AcDbEntity
  8
Layer_1
 62
1
100
AcDbLine
 10
1.536901
 20
9.816923
 30
0.0
 11
1.782457
 21
10.020368
 31
0.0
  0
LINE
  5
169
100
AcDbEntity
  8
Layer_1
 62
1
100
AcDbLine
 10
1.536901
 20
9.816923
 30
0.0
 11
1.810498
 21
9.985270
 31
0.0
  0
LINE
  5
16a
100
AcDbEntity
  8
Layer_1
 62
1
100
AcDbLine
 10
1.536901
 20
9.816923
 30
0.0
 11
1.831554
 21
9.943173
 31
0.0
  0
LINE
  5
16b
100
AcDbEntity
  8
Layer_1
 62
1
100
AcDbLine
 10
1.536901
 20
9.816923
 30
0.0
 11
1.845610
 21
9.894076
 31
0.0
  0
LINE
  5
16c
100
AcDbEntity
  8
Layer_1
 62
1
100
AcDbLine
 10
1.536901
 20
9.816923
 30
0.0
 11
1.852610
 21
9.851965
 31
0.0
  0
LINE
  5
16d
100
AcDbEntity
  8
Layer_1
 62
1
100
AcDbLine
 10
1.536901
 20
9.816923
 30
0.0
 11
1.852610
 21
9.809868
 31
0.0
  0
LINE
  5
16e
100
AcDbEntity
  8
Layer_1
 62
1
100
AcDbLine
 10
1.536901
 20
9.816923
 30
0.0
 11
1.852610
 21
9.767826
 31
0.0
  0
LINE
  5
16f
100
AcDbEntity
  8
Layer_1
 62
1
100
AcDbLine
 10
1.536901
 20
9.816923
 30
0.0
 11
1.838554
 21
9.718729
 31
0.0
  0
LINE
  5
170
100
AcDbEntity
  8
Layer_1
 62
1
100
AcDbLine
 10
1.536901
 20
9.816923
 30
0.0
 11
1.824554
 21
9.676618
 31
0.0
  0
LINE
  5
171
100
AcDbEntity
  8
Layer_1
 62
1
100
AcDbLine
 10
1.536901
 20
9.816923
 30
0.0
 11
1.796512
 21
9.634520
 31
0.0
  0
LINE
  5
172
100
AcDbEntity
  8
Layer_1
 62
1
100
AcDbLine
 10
1.536901
 20
9.816923
 30
0.0
 11
1.768401
 21
9.599423
 31
0.0
  0
LINE
  5
173
100
AcDbEntity
  8
Layer_1
 62
1
100
AcDbLine
 10
1.536901
 20
9.816923
 30
0.0
 11
1.733360
 21
9.564368
 31
0.0
  0
LINE
  5
174
100
AcDbEntity
  8
Layer_1
 62
1
100
AcDbLine
 10
1.536901
 20
9.816923
 30
0.0
 11
1.698248
 21
9.543326
 31
0.0
  0
SPLINE
  5
175
100
AcDbEntity
  8
Layer_1
 62
1
100
AcDbSpline
 70
0
 71
3
 72
19
 73
15
 74
13
 40
0.000000
 40
0.000000
 40
0.000000
 40
0.000000
 40
0.003531
 40
0.007403
 40
0.011798
 40
0.016178
 40
0.020063
 40
0.023598
 40
0.027124
 40
0.031006
 40
0.035387
 40
0.039781
 40
0.043651
 40
0.047173
 40
0.047173
 40
0.047173
 40
0.047173
 10
1.226619
 20
6.234109
 30
0.0
 10
1.226357
 20
6.232923
 30
0.0
 10
1.225806
 20
6.230436
 30
0.0
 10
1.222315
 20
6.228041
 30
0.0
 10
1.218122
 20
6.227186
 30
0.0
 10
1.213858
 20
6.228048
 30
0.0
 10
1.210543
 20
6.230432
 30
0.0
 10
1.209117
 20
6.234106
 30
0.0
 10
1.210545
 20
6.237778
 30
0.0
 10
1.213859
 20
6.240156
 30
0.0
 10
1.218122
 20
6.241018
 30
0.0
 10
1.222314
 20
6.240163
 30
0.0
 10
1.225804
 20
6.237774
 30
0.0
 10
1.226356
 20
6.235292
 30
0.0
 10
1.226619
 20
6.234109
 30
0.0
 11
1.226619
 21
6.234109
 31
0.0
 11
1.225458
 21
6.230774
 31
0.0
 11
1.222405
 21
6.228393
 31
0.0
 11
1.218106
 21
6.227484
 31
0.0
 11
1.213821
 21
6.228393
 31
0.0
 11
1.210752
 21
6.230774
 31
0.0
 11
1.209578
 21
6.234109
 31
0.0
 11
1.210752
 21
6.237434
 31
0.0
 11
1.213821
 21
6.239812
 31
0.0
 11
1.218106
 21
6.240720
 31
0.0
 11
1.222405
 21
6.239812
 31
0.0
 11
1.225458
 21
6.237434
 31
0.0
 11
1.226619
 21
6.234109
 31
0.0
  0
LINE
  5
176
100
AcDbEntity
  8
Layer_1
 62
1
100
AcDbLine
 10
1.494860
 20
9.816923
 30
0.0
 11
1.578998
 21
9.816923
 31
0.0
  0
LINE
  5
177
100
AcDbEntity
  8
Layer_1
 62
1
100
AcDbLine
 10
1.536901
 20
9.774826
 30
0.0
 11
1.536901
 21
9.859020
 31
0.0
  0
SPLINE
  5
178
100
AcDbEntity
  8
Layer_1
 62
1
100
AcDbSpline
 70
0
 71
3
 72
19
 73
15
 74
13
 40
0.000000
 40
0.000000
 40
0.000000
 40
0.000000
 40
0.056881
 40
0.108680
 40
0.165561
 40
0.222480
 40
0.274289
 40
0.331171
 40
0.388090
 40
0.439909
 40
0.496829
 40
0.553710
 40
0.605520
 40
0.662438
 40
0.662438
 40
0.662438
 40
0.662438
 10
1.431707
 20
9.816923
 30
0.0
 10
1.433961
 20
9.836250
 30
0.0
 10
1.438267
 20
9.873177
 30
0.0
 10
1.480917
 20
9.914613
 30
0.0
 10
1.536839
 20
9.926044
 30
0.0
 10
1.593203
 20
9.914619
 30
0.0
 10
1.634640
 20
9.873182
 30
0.0
 10
1.646081
 20
9.816910
 30
0.0
 10
1.634646
 20
9.760634
 30
0.0
 10
1.593208
 20
9.719173
 30
0.0
 10
1.536838
 20
9.707746
 30
0.0
 10
1.480912
 20
9.719178
 30
0.0
 10
1.438261
 20
9.760640
 30
0.0
 10
1.433959
 20
9.797583
 30
0.0
 10
1.431707
 20
9.816923
 30
0.0
 11
1.431707
 21
9.816923
 31
0.0
 11
1.444958
 21
9.872239
 31
0.0
 11
1.481585
 21
9.908867
 31
0.0
 11
1.536901
 21
9.922118
 31
0.0
 11
1.592256
 21
9.908867
 31
0.0
 11
1.628898
 21
9.872239
 31
0.0
 11
1.642151
 21
9.816923
 31
0.0
 11
1.628898
 21
9.761568
 31
0.0
 11
1.592256
 21
9.724926
 31
0.0
 11
1.536901
 21
9.711673
 31
0.0
 11
1.481585
 21
9.724926
 31
0.0
 11
1.444958
 21
9.761568
 31
0.0
 11
1.431707
 21
9.816923
 31
0.0
  0
LINE
  5
179
100
AcDbEntity
  8
Layer_1
 62
7
100
AcDbLine
 10
1.545262
 20
9.814756
 30
0.0
 11
1.545262
 21
9.814756
 31
0.0
  0
SPLINE
  5
17a
100
AcDbEntity
  8
Layer_1
 62
7
100
AcDbSpline
 70
0
 71
3
 72
19
 73
15
 74
13
 40
0.000000
 40
0.000000
 40
0.000000
 40
0.000000
 40
0.004461
 40
0.009016
 40
0.013919
 40
0.018821
 40
0.023376
 40
0.027838
 40
0.032333
 40
0.036893
 40
0.041795
 40
0.046697
 40
0.051257
 40
0.055753
 40
0.055753
 40
0.055753
 40
0.055753
 10
1.545262
 20
9.814756
 30
0.0
 10
1.544989
 20
9.813253
 30
0.0
 10
1.544436
 20
9.810214
 30
0.0
 10
1.540615
 20
9.807039
 30
0.0
 10
1.535828
 20
9.805893
 30
0.0
 10
1.530981
 20
9.807039
 30
0.0
 10
1.527328
 20
9.810214
 30
0.0
 10
1.525902
 20
9.814767
 30
0.0
 10
1.527321
 20
9.819327
 30
0.0
 10
1.530978
 20
9.822519
 30
0.0
 10
1.535828
 20
9.823660
 30
0.0
 10
1.540618
 20
9.822519
 30
0.0
 10
1.544444
 20
9.819327
 30
0.0
 10
1.544991
 20
9.816273
 30
0.0
 10
1.545262
 20
9.814756
 30
0.0
 11
1.545262
 21
9.814756
 31
0.0
 11
1.543971
 21
9.810486
 31
0.0
 11
1.540581
 21
9.807444
 31
0.0
 11
1.535818
 21
9.806284
 31
0.0
 11
1.531054
 21
9.807444
 31
0.0
 11
1.527665
 21
9.810486
 31
0.0
 11
1.526373
 21
9.814756
 31
0.0
 11
1.527665
 21
9.819063
 31
0.0
 11
1.531054
 21
9.822112
 31
0.0
 11
1.535818
 21
9.823270
 31
0.0
 11
1.540581
 21
9.822112
 31
0.0
 11
1.543971
 21
9.819063
 31
0.0
 11
1.545262
 21
9.814756
 31
0.0
  0
LINE
  5
17b
100
AcDbEntity
  8
Layer_1
 62
1
100
AcDbLine
 10
1.213136
 20
10.359295
 30
0.0
 11
1.306066
 21
10.359295
 31
0.0
  0
LINE
  5
17c
100
AcDbEntity
  8
Layer_1
 62
1
100
AcDbLine
 10
1.259622
 20
10.312809
 30
0.0
 11
1.259622
 21
10.405795
 31
0.0
  0
LINE
  5
17d
100
AcDbEntity
  8
Layer_1
 62
1
100
AcDbLine
 10
1.536895
 20
7.371403
 30
0.0
 11
1.361548
 21
7.055694
 31
0.0
  0
LINE
  5
17e
100
AcDbEntity
  8
Layer_1
 62
1
100
AcDbLine
 10
1.536895
 20
7.371403
 30
0.0
 11
1.214200
 21
7.210056
 31
0.0
  0
LINE
  5
17f
100
AcDbEntity
  8
Layer_1
 62
1
100
AcDbLine
 10
1.536895
 20
7.371403
 30
0.0
 11
1.179145
 21
7.413500
 31
0.0
  0
LINE
  5
180
100
AcDbEntity
  8
Layer_1
 62
1
100
AcDbLine
 10
1.536895
 20
7.371403
 30
0.0
 11
1.263353
 21
7.602903
 31
0.0
  0
LINE
  5
181
100
AcDbEntity
  8
Layer_1
 62
1
100
AcDbLine
 10
1.536895
 20
7.371403
 30
0.0
 11
1.438700
 21
7.715153
 31
0.0
  0
LINE
  5
182
100
AcDbEntity
  8
Layer_1
 62
1
100
AcDbLine
 10
1.536895
 20
7.371403
 30
0.0
 11
1.635145
 21
7.715153
 31
0.0
  0
LINE
  5
183
100
AcDbEntity
  8
Layer_1
 62
1
100
AcDbLine
 10
1.536895
 20
7.371403
 30
0.0
 11
1.810492
 21
7.602903
 31
0.0
  0
LINE
  5
184
100
AcDbEntity
  8
Layer_1
 62
1
100
AcDbLine
 10
1.536895
 20
7.371403
 30
0.0
 11
1.894700
 21
7.413500
 31
0.0
  0
LINE
  5
185
100
AcDbEntity
  8
Layer_1
 62
1
100
AcDbLine
 10
1.536895
 20
7.371403
 30
0.0
 11
1.859603
 21
7.210056
 31
0.0
  0
LINE
  5
186
100
AcDbEntity
  8
Layer_1
 62
1
100
AcDbLine
 10
1.536895
 20
7.371403
 30
0.0
 11
1.719298
 21
7.055694
 31
0.0
  0
LINE
  5
187
100
AcDbEntity
  8
Layer_1
 62
1
100
AcDbLine
 10
1.536895
 20
7.371403
 30
0.0
 11
1.382603
 21
7.097806
 31
0.0
  0
LINE
  5
188
100
AcDbEntity
  8
Layer_1
 62
1
100
AcDbLine
 10
1.536895
 20
7.371403
 30
0.0
 11
1.340506
 21
7.118847
 31
0.0
  0
LINE
  5
189
100
AcDbEntity
  8
Layer_1
 62
1
100
AcDbLine
 10
1.536895
 20
7.371403
 30
0.0
 11
1.305395
 21
7.153903
 31
0.0
  0
LINE
  5
18a
100
AcDbEntity
  8
Layer_1
 62
1
100
AcDbLine
 10
1.536895
 20
7.371403
 30
0.0
 11
1.277353
 21
7.189000
 31
0.0
  0
LINE
  5
18b
100
AcDbEntity
  8
Layer_1
 62
1
100
AcDbLine
 10
1.536895
 20
7.371403
 30
0.0
 11
1.249298
 21
7.231097
 31
0.0
  0
LINE
  5
18c
100
AcDbEntity
  8
Layer_1
 62
1
100
AcDbLine
 10
1.536895
 20
7.371403
 30
0.0
 11
1.235242
 21
7.273208
 31
0.0
  0
LINE
  5
18d
100
AcDbEntity
  8
Layer_1
 62
1
100
AcDbLine
 10
1.536895
 20
7.371403
 30
0.0
 11
1.221256
 21
7.322306
 31
0.0
  0
LINE
  5
18e
100
AcDbEntity
  8
Layer_1
 62
1
100
AcDbLine
 10
1.536895
 20
7.371403
 30
0.0
 11
1.221256
 21
7.364347
 31
0.0
  0
LINE
  5
18f
100
AcDbEntity
  8
Layer_1
 62
1
100
AcDbLine
 10
1.536895
 20
7.371403
 30
0.0
 11
1.221256
 21
7.406444
 31
0.0
  0
LINE
  5
190
100
AcDbEntity
  8
Layer_1
 62
1
100
AcDbLine
 10
1.536895
 20
7.371403
 30
0.0
 11
1.228256
 21
7.448556
 31
0.0
  0
LINE
  5
191
100
AcDbEntity
  8
Layer_1
 62
1
100
AcDbLine
 10
1.536895
 20
7.371403
 30
0.0
 11
1.242298
 21
7.497653
 31
0.0
  0
LINE
  5
192
100
AcDbEntity
  8
Layer_1
 62
1
100
AcDbLine
 10
1.536895
 20
7.371403
 30
0.0
 11
1.263353
 21
7.539750
 31
0.0
  0
LINE
  5
193
100
AcDbEntity
  8
Layer_1
 62
1
100
AcDbLine
 10
1.536895
 20
7.371403
 30
0.0
 11
1.291395
 21
7.574847
 31
0.0
  0
LINE
  5
194
100
AcDbEntity
  8
Layer_1
 62
1
100
AcDbLine
 10
1.536895
 20
7.371403
 30
0.0
 11
1.326450
 21
7.609903
 31
0.0
  0
LINE
  5
195
100
AcDbEntity
  8
Layer_1
 62
1
100
AcDbLine
 10
1.536895
 20
7.371403
 30
0.0
 11
1.361548
 21
7.637944
 31
0.0
  0
LINE
  5
196
100
AcDbEntity
  8
Layer_1
 62
1
100
AcDbLine
 10
1.536895
 20
7.371403
 30
0.0
 11
1.403645
 21
7.659000
 31
0.0
  0
LINE
  5
197
100
AcDbEntity
  8
Layer_1
 62
1
100
AcDbLine
 10
1.536895
 20
7.371403
 30
0.0
 11
1.445700
 21
7.680056
 31
0.0
  0
LINE
  5
198
100
AcDbEntity
  8
Layer_1
 62
1
100
AcDbLine
 10
1.536895
 20
7.371403
 30
0.0
 11
1.494853
 21
7.687056
 31
0.0
  0
LINE
  5
199
100
AcDbEntity
  8
Layer_1
 62
1
100
AcDbLine
 10
1.536895
 20
7.371403
 30
0.0
 11
1.536895
 21
7.694097
 31
0.0
  0
LINE
  5
19a
100
AcDbEntity
  8
Layer_1
 62
1
100
AcDbLine
 10
1.536895
 20
7.371403
 30
0.0
 11
1.578992
 21
7.687056
 31
0.0
  0
LINE
  5
19b
100
AcDbEntity
  8
Layer_1
 62
1
100
AcDbLine
 10
1.536895
 20
7.371403
 30
0.0
 11
1.628103
 21
7.680056
 31
0.0
  0
LINE
  5
19c
100
AcDbEntity
  8
Layer_1
 62
1
100
AcDbLine
 10
1.536895
 20
7.371403
 30
0.0
 11
1.670200
 21
7.659000
 31
0.0
  0
LINE
  5
19d
100
AcDbEntity
  8
Layer_1
 62
1
100
AcDbLine
 10
1.536895
 20
7.371403
 30
0.0
 11
1.712298
 21
7.637944
 31
0.0
  0
LINE
  5
19e
100
AcDbEntity
  8
Layer_1
 62
1
100
AcDbLine
 10
1.536895
 20
7.371403
 30
0.0
 11
1.747353
 21
7.609903
 31
0.0
  0
LINE
  5
19f
100
AcDbEntity
  8
Layer_1
 62
1
100
AcDbLine
 10
1.536895
 20
7.371403
 30
0.0
 11
1.782450
 21
7.574847
 31
0.0
  0
LINE
  5
1a0
100
AcDbEntity
  8
Layer_1
 62
1
100
AcDbLine
 10
1.536895
 20
7.371403
 30
0.0
 11
1.810492
 21
7.539750
 31
0.0
  0
LINE
  5
1a1
100
AcDbEntity
  8
Layer_1
 62
1
100
AcDbLine
 10
1.536895
 20
7.371403
 30
0.0
 11
1.831548
 21
7.497653
 31
0.0
  0
LINE
  5
1a2
100
AcDbEntity
  8
Layer_1
 62
1
100
AcDbLine
 10
1.536895
 20
7.371403
 30
0.0
 11
1.845603
 21
7.448556
 31
0.0
  0
LINE
  5
1a3
100
AcDbEntity
  8
Layer_1
 62
1
100
AcDbLine
 10
1.536895
 20
7.371403
 30
0.0
 11
1.852603
 21
7.406444
 31
0.0
  0
LINE
  5
1a4
100
AcDbEntity
  8
Layer_1
 62
1
100
AcDbLine
 10
1.536895
 20
7.371403
 30
0.0
 11
1.852603
 21
7.364347
 31
0.0
  0
LINE
  5
1a5
100
AcDbEntity
  8
Layer_1
 62
1
100
AcDbLine
 10
1.536895
 20
7.371403
 30
0.0
 11
1.852603
 21
7.322306
 31
0.0
  0
LINE
  5
1a6
100
AcDbEntity
  8
Layer_1
 62
1
100
AcDbLine
 10
1.536895
 20
7.371403
 30
0.0
 11
1.838548
 21
7.273208
 31
0.0
  0
LINE
  5
1a7
100
AcDbEntity
  8
Layer_1
 62
1
100
AcDbLine
 10
1.536895
 20
7.371403
 30
0.0
 11
1.824548
 21
7.231097
 31
0.0
  0
LINE
  5
1a8
100
AcDbEntity
  8
Layer_1
 62
1
100
AcDbLine
 10
1.536895
 20
7.371403
 30
0.0
 11
1.796506
 21
7.189000
 31
0.0
  0
LINE
  5
1a9
100
AcDbEntity
  8
Layer_1
 62
1
100
AcDbLine
 10
1.536895
 20
7.371403
 30
0.0
 11
1.768395
 21
7.153903
 31
0.0
  0
LINE
  5
1aa
100
AcDbEntity
  8
Layer_1
 62
1
100
AcDbLine
 10
1.536895
 20
7.371403
 30
0.0
 11
1.733353
 21
7.118847
 31
0.0
  0
LINE
  5
1ab
100
AcDbEntity
  8
Layer_1
 62
1
100
AcDbLine
 10
1.536895
 20
7.371403
 30
0.0
 11
1.698242
 21
7.097806
 31
0.0
  0
SPLINE
  5
1ac
100
AcDbEntity
  8
Layer_1
 62
1
100
AcDbSpline
 70
0
 71
3
 72
19
 73
15
 74
13
 40
0.000000
 40
0.000000
 40
0.000000
 40
0.000000
 40
0.062845
 40
0.120074
 40
0.182949
 40
0.245779
 40
0.302976
 40
0.365816
 40
0.428650
 40
0.485850
 40
0.548681
 40
0.611557
 40
0.668788
 40
0.731627
 40
0.731627
 40
0.731627
 40
0.731627
 10
1.143358
 20
10.359295
 30
0.0
 10
1.145847
 20
10.380649
 30
0.0
 10
1.150602
 20
10.421449
 30
0.0
 10
1.197747
 20
10.467225
 30
0.0
 10
1.259522
 20
10.479837
 30
0.0
 10
1.321777
 20
10.467225
 30
0.0
 10
1.367502
 20
10.421434
 30
0.0
 10
1.380106
 20
10.359297
 30
0.0
 10
1.367500
 20
10.297161
 30
0.0
 10
1.321778
 20
10.251369
 30
0.0
 10
1.259522
 20
10.238751
 30
0.0
 10
1.197746
 20
10.251369
 30
0.0
 10
1.150604
 20
10.297145
 30
0.0
 10
1.145847
 20
10.337943
 30
0.0
 10
1.143358
 20
10.359295
 30
0.0
 11
1.143358
 21
10.359295
 31
0.0
 11
1.157998
 21
10.420411
 31
0.0
 11
1.198473
 21
10.460869
 31
0.0
 11
1.259622
 21
10.475503
 31
0.0
 11
1.320723
 21
10.460869
 31
0.0
 11
1.361155
 21
10.420411
 31
0.0
 11
1.375775
 21
10.359295
 31
0.0
 11
1.361155
 21
10.298185
 31
0.0
 11
1.320723
 21
10.257724
 31
0.0
 11
1.259622
 21
10.243087
 31
0.0
 11
1.198473
 21
10.257724
 31
0.0
 11
1.157998
 21
10.298185
 31
0.0
 11
1.143358
 21
10.359295
 31
0.0
  0
LINE
  5
1ad
100
AcDbEntity
  8
Layer_1
 62
1
100
AcDbLine
 10
1.494853
 20
7.371403
 30
0.0
 11
1.578992
 21
7.371403
 31
0.0
  0
LINE
  5
1ae
100
AcDbEntity
  8
Layer_1
 62
1
100
AcDbLine
 10
1.536895
 20
7.329306
 30
0.0
 11
1.536895
 21
7.413500
 31
0.0
  0
SPLINE
  5
1af
100
AcDbEntity
  8
Layer_1
 62
1
100
AcDbSpline
 70
0
 71
3
 72
19
 73
15
 74
13
 40
0.000000
 40
0.000000
 40
0.000000
 40
0.000000
 40
0.056881
 40
0.108680
 40
0.165561
 40
0.222480
 40
0.274289
 40
0.331171
 40
0.388090
 40
0.439909
 40
0.496829
 40
0.553710
 40
0.605520
 40
0.662438
 40
0.662438
 40
0.662438
 40
0.662438
 10
1.431700
 20
7.371403
 30
0.0
 10
1.433954
 20
7.390730
 30
0.0
 10
1.438260
 20
7.427656
 30
0.0
 10
1.480911
 20
7.469093
 30
0.0
 10
1.536832
 20
7.480524
 30
0.0
 10
1.593196
 20
7.469098
 30
0.0
 10
1.634634
 20
7.427662
 30
0.0
 10
1.646075
 20
7.371390
 30
0.0
 10
1.634639
 20
7.315114
 30
0.0
 10
1.593202
 20
7.273653
 30
0.0
 10
1.536832
 20
7.262226
 30
0.0
 10
1.480906
 20
7.273658
 30
0.0
 10
1.438254
 20
7.315119
 30
0.0
 10
1.433952
 20
7.352063
 30
0.0
 10
1.431700
 20
7.371403
 30
0.0
 11
1.431700
 21
7.371403
 31
0.0
 11
1.444951
 21
7.426719
 31
0.0
 11
1.481579
 21
7.463346
 31
0.0
 11
1.536895
 21
7.476597
 31
0.0
 11
1.592250
 21
7.463346
 31
0.0
 11
1.628892
 21
7.426719
 31
0.0
 11
1.642145
 21
7.371403
 31
0.0
 11
1.628892
 21
7.316048
 31
0.0
 11
1.592250
 21
7.279406
 31
0.0
 11
1.536895
 21
7.266153
 31
0.0
 11
1.481579
 21
7.279406
 31
0.0
 11
1.444951
 21
7.316048
 31
0.0
 11
1.431700
 21
7.371403
 31
0.0
  0
LINE
  5
1b0
100
AcDbEntity
  8
Layer_1
 62
7
100
AcDbLine
 10
1.545256
 20
7.369236
 30
0.0
 11
1.545256
 21
7.369236
 31
0.0
  0
LINE
  5
1b1
100
AcDbEntity
  8
Layer_1
 62
1
100
AcDbLine
 10
1.536895
 20
8.718192
 30
0.0
 11
1.361548
 21
8.402483
 31
0.0
  0
LINE
  5
1b2
100
AcDbEntity
  8
Layer_1
 62
1
100
AcDbLine
 10
1.536895
 20
8.718192
 30
0.0
 11
1.214200
 21
8.556844
 31
0.0
  0
LINE
  5
1b3
100
AcDbEntity
  8
Layer_1
 62
1
100
AcDbLine
 10
1.536895
 20
8.718192
 30
0.0
 11
1.179145
 21
8.760289
 31
0.0
  0
LINE
  5
1b4
100
AcDbEntity
  8
Layer_1
 62
1
100
AcDbLine
 10
1.536895
 20
8.718192
 30
0.0
 11
1.263353
 21
8.949692
 31
0.0
  0
LINE
  5
1b5
100
AcDbEntity
  8
Layer_1
 62
1
100
AcDbLine
 10
1.536895
 20
8.718192
 30
0.0
 11
1.438700
 21
9.061942
 31
0.0
  0
LINE
  5
1b6
100
AcDbEntity
  8
Layer_1
 62
1
100
AcDbLine
 10
1.536895
 20
8.718192
 30
0.0
 11
1.635145
 21
9.061942
 31
0.0
  0
LINE
  5
1b7
100
AcDbEntity
  8
Layer_1
 62
1
100
AcDbLine
 10
1.536895
 20
8.718192
 30
0.0
 11
1.810492
 21
8.949692
 31
0.0
  0
LINE
  5
1b8
100
AcDbEntity
  8
Layer_1
 62
1
100
AcDbLine
 10
1.536895
 20
8.718192
 30
0.0
 11
1.894700
 21
8.760289
 31
0.0
  0
LINE
  5
1b9
100
AcDbEntity
  8
Layer_1
 62
1
100
AcDbLine
 10
1.536895
 20
8.718192
 30
0.0
 11
1.859603
 21
8.556844
 31
0.0
  0
LINE
  5
1ba
100
AcDbEntity
  8
Layer_1
 62
1
100
AcDbLine
 10
1.536895
 20
8.718192
 30
0.0
 11
1.719298
 21
8.402483
 31
0.0
  0
LINE
  5
1bb
100
AcDbEntity
  8
Layer_1
 62
1
100
AcDbLine
 10
1.536895
 20
8.718192
 30
0.0
 11
1.382603
 21
8.444594
 31
0.0
  0
LINE
  5
1bc
100
AcDbEntity
  8
Layer_1
 62
1
100
AcDbLine
 10
1.536895
 20
8.718192
 30
0.0
 11
1.340506
 21
8.465636
 31
0.0
  0
LINE
  5
1bd
100
AcDbEntity
  8
Layer_1
 62
1
100
AcDbLine
 10
1.536895
 20
8.718192
 30
0.0
 11
1.305395
 21
8.500692
 31
0.0
  0
LINE
  5
1be
100
AcDbEntity
  8
Layer_1
 62
1
100
AcDbLine
 10
1.536895
 20
8.718192
 30
0.0
 11
1.277353
 21
8.535789
 31
0.0
  0
LINE
  5
1bf
100
AcDbEntity
  8
Layer_1
 62
1
100
AcDbLine
 10
1.536895
 20
8.718192
 30
0.0
 11
1.249298
 21
8.577886
 31
0.0
  0
LINE
  5
1c0
100
AcDbEntity
  8
Layer_1
 62
1
100
AcDbLine
 10
1.536895
 20
8.718192
 30
0.0
 11
1.235242
 21
8.619997
 31
0.0
  0
LINE
  5
1c1
100
AcDbEntity
  8
Layer_1
 62
1
100
AcDbLine
 10
1.536895
 20
8.718192
 30
0.0
 11
1.221256
 21
8.669094
 31
0.0
  0
LINE
  5
1c2
100
AcDbEntity
  8
Layer_1
 62
1
100
AcDbLine
 10
1.536895
 20
8.718192
 30
0.0
 11
1.221256
 21
8.711136
 31
0.0
  0
LINE
  5
1c3
100
AcDbEntity
  8
Layer_1
 62
1
100
AcDbLine
 10
1.536895
 20
8.718192
 30
0.0
 11
1.221256
 21
8.753233
 31
0.0
  0
LINE
  5
1c4
100
AcDbEntity
  8
Layer_1
 62
1
100
AcDbLine
 10
1.536895
 20
8.718192
 30
0.0
 11
1.228256
 21
8.795344
 31
0.0
  0
LINE
  5
1c5
100
AcDbEntity
  8
Layer_1
 62
1
100
AcDbLine
 10
1.536895
 20
8.718192
 30
0.0
 11
1.242298
 21
8.844442
 31
0.0
  0
LINE
  5
1c6
100
AcDbEntity
  8
Layer_1
 62
1
100
AcDbLine
 10
1.536895
 20
8.718192
 30
0.0
 11
1.263353
 21
8.886539
 31
0.0
  0
LINE
  5
1c7
100
AcDbEntity
  8
Layer_1
 62
1
100
AcDbLine
 10
1.536895
 20
8.718192
 30
0.0
 11
1.291395
 21
8.921636
 31
0.0
  0
LINE
  5
1c8
100
AcDbEntity
  8
Layer_1
 62
1
100
AcDbLine
 10
1.536895
 20
8.718192
 30
0.0
 11
1.326450
 21
8.956692
 31
0.0
  0
LINE
  5
1c9
100
AcDbEntity
  8
Layer_1
 62
1
100
AcDbLine
 10
1.536895
 20
8.718192
 30
0.0
 11
1.361548
 21
8.984733
 31
0.0
  0
LINE
  5
1ca
100
AcDbEntity
  8
Layer_1
 62
1
100
AcDbLine
 10
1.536895
 20
8.718192
 30
0.0
 11
1.403645
 21
9.005789
 31
0.0
  0
LINE
  5
1cb
100
AcDbEntity
  8
Layer_1
 62
1
100
AcDbLine
 10
1.536895
 20
8.718192
 30
0.0
 11
1.445700
 21
9.026844
 31
0.0
  0
LINE
  5
1cc
100
AcDbEntity
  8
Layer_1
 62
1
100
AcDbLine
 10
1.536895
 20
8.718192
 30
0.0
 11
1.494853
 21
9.033844
 31
0.0
  0
LINE
  5
1cd
100
AcDbEntity
  8
Layer_1
 62
1
100
AcDbLine
 10
1.536895
 20
8.718192
 30
0.0
 11
1.536895
 21
9.040886
 31
0.0
  0
LINE
  5
1ce
100
AcDbEntity
  8
Layer_1
 62
1
100
AcDbLine
 10
1.536895
 20
8.718192
 30
0.0
 11
1.578992
 21
9.033844
 31
0.0
  0
LINE
  5
1cf
100
AcDbEntity
  8
Layer_1
 62
1
100
AcDbLine
 10
1.536895
 20
8.718192
 30
0.0
 11
1.628103
 21
9.026844
 31
0.0
  0
LINE
  5
1d0
100
AcDbEntity
  8
Layer_1
 62
1
100
AcDbLine
 10
1.536895
 20
8.718192
 30
0.0
 11
1.670200
 21
9.005789
 31
0.0
  0
LINE
  5
1d1
100
AcDbEntity
  8
Layer_1
 62
1
100
AcDbLine
 10
1.536895
 20
8.718192
 30
0.0
 11
1.712298
 21
8.984733
 31
0.0
  0
LINE
  5
1d2
100
AcDbEntity
  8
Layer_1
 62
1
100
AcDbLine
 10
1.536895
 20
8.718192
 30
0.0
 11
1.747353
 21
8.956692
 31
0.0
  0
LINE
  5
1d3
100
AcDbEntity
  8
Layer_1
 62
1
100
AcDbLine
 10
1.536895
 20
8.718192
 30
0.0
 11
1.782450
 21
8.921636
 31
0.0
  0
LINE
  5
1d4
100
AcDbEntity
  8
Layer_1
 62
1
100
AcDbLine
 10
1.536895
 20
8.718192
 30
0.0
 11
1.810492
 21
8.886539
 31
0.0
  0
LINE
  5
1d5
100
AcDbEntity
  8
Layer_1
 62
1
100
AcDbLine
 10
1.536895
 20
8.718192
 30
0.0
 11
1.831548
 21
8.844442
 31
0.0
  0
LINE
  5
1d6
100
AcDbEntity
  8
Layer_1
 62
1
100
AcDbLine
 10
1.536895
 20
8.718192
 30
0.0
 11
1.845603
 21
8.795344
 31
0.0
  0
LINE
  5
1d7
100
AcDbEntity
  8
Layer_1
 62
1
100
AcDbLine
 10
1.536895
 20
8.718192
 30
0.0
 11
1.852603
 21
8.753233
 31
0.0
  0
LINE
  5
1d8
100
AcDbEntity
  8
Layer_1
 62
1
100
AcDbLine
 10
1.536895
 20
8.718192
 30
0.0
 11
1.852603
 21
8.711136
 31
0.0
  0
LINE
  5
1d9
100
AcDbEntity
  8
Layer_1
 62
1
100
AcDbLine
 10
1.536895
 20
8.718192
 30
0.0
 11
1.852603
 21
8.669094
 31
0.0
  0
LINE
  5
1da
100
AcDbEntity
  8
Layer_1
 62
1
100
AcDbLine
 10
1.536895
 20
8.718192
 30
0.0
 11
1.838548
 21
8.619997
 31
0.0
  0
LINE
  5
1db
100
AcDbEntity
  8
Layer_1
 62
1
100
AcDbLine
 10
1.536895
 20
8.718192
 30
0.0
 11
1.824548
 21
8.577886
 31
0.0
  0
LINE
  5
1dc
100
AcDbEntity
  8
Layer_1
 62
1
100
AcDbLine
 10
1.536895
 20
8.718192
 30
0.0
 11
1.796506
 21
8.535789
 31
0.0
  0
LINE
  5
1dd
100
AcDbEntity
  8
Layer_1
 62
1
100
AcDbLine
 10
1.536895
 20
8.718192
 30
0.0
 11
1.768395
 21
8.500692
 31
0.0
  0
LINE
  5
1de
100
AcDbEntity
  8
Layer_1
 62
1
100
AcDbLine
 10
1.536895
 20
8.718192
 30
0.0
 11
1.733353
 21
8.465636
 31
0.0
  0
LINE
  5
1df
100
AcDbEntity
  8
Layer_1
 62
1
100
AcDbLine
 10
1.536895
 20
8.718192
 30
0.0
 11
1.698242
 21
8.444594
 31
0.0
  0
SPLINE
  5
1e0
100
AcDbEntity
  8
Layer_1
 62
7
100
AcDbSpline
 70
0
 71
3
 72
19
 73
15
 74
13
 40
0.000000
 40
0.000000
 40
0.000000
 40
0.000000
 40
0.004461
 40
0.009016
 40
0.013919
 40
0.018821
 40
0.023376
 40
0.027838
 40
0.032333
 40
0.036893
 40
0.041795
 40
0.046697
 40
0.051257
 40
0.055753
 40
0.055753
 40
0.055753
 40
0.055753
 10
1.545256
 20
7.369236
 30
0.0
 10
1.544983
 20
7.367732
 30
0.0
 10
1.544430
 20
7.364694
 30
0.0
 10
1.540608
 20
7.361519
 30
0.0
 10
1.535822
 20
7.360373
 30
0.0
 10
1.530975
 20
7.361519
 30
0.0
 10
1.527322
 20
7.364694
 30
0.0
 10
1.525896
 20
7.369247
 30
0.0
 10
1.527315
 20
7.373806
 30
0.0
 10
1.530971
 20
7.376998
 30
0.0
 10
1.535822
 20
7.378139
 30
0.0
 10
1.540611
 20
7.376998
 30
0.0
 10
1.544438
 20
7.373806
 30
0.0
 10
1.544985
 20
7.370752
 30
0.0
 10
1.545256
 20
7.369236
 30
0.0
 11
1.545256
 21
7.369236
 31
0.0
 11
1.543965
 21
7.364966
 31
0.0
 11
1.540575
 21
7.361923
 31
0.0
 11
1.535812
 21
7.360764
 31
0.0
 11
1.531048
 21
7.361923
 31
0.0
 11
1.527658
 21
7.364966
 31
0.0
 11
1.526367
 21
7.369236
 31
0.0
 11
1.527658
 21
7.373542
 31
0.0
 11
1.531048
 21
7.376592
 31
0.0
 11
1.535812
 21
7.377750
 31
0.0
 11
1.540575
 21
7.376592
 31
0.0
 11
1.543965
 21
7.373542
 31
0.0
 11
1.545256
 21
7.369236
 31
0.0
  0
LINE
  5
1e1
100
AcDbEntity
  8
Layer_1
 62
1
100
AcDbLine
 10
1.494853
 20
8.718192
 30
0.0
 11
1.578992
 21
8.718192
 31
0.0
  0
LINE
  5
1e2
100
AcDbEntity
  8
Layer_1
 62
1
100
AcDbLine
 10
1.536895
 20
8.676094
 30
0.0
 11
1.536895
 21
8.760289
 31
0.0
  0
SPLINE
  5
1e3
100
AcDbEntity
  8
Layer_1
 62
1
100
AcDbSpline
 70
0
 71
3
 72
19
 73
15
 74
13
 40
0.000000
 40
0.000000
 40
0.000000
 40
0.000000
 40
0.056881
 40
0.108680
 40
0.165561
 40
0.222480
 40
0.274289
 40
0.331171
 40
0.388090
 40
0.439909
 40
0.496829
 40
0.553710
 40
0.605520
 40
0.662438
 40
0.662438
 40
0.662438
 40
0.662438
 10
1.431700
 20
8.718192
 30
0.0
 10
1.433954
 20
8.737518
 30
0.0
 10
1.438260
 20
8.774445
 30
0.0
 10
1.480911
 20
8.815882
 30
0.0
 10
1.536832
 20
8.827313
 30
0.0
 10
1.593196
 20
8.815887
 30
0.0
 10
1.634634
 20
8.774451
 30
0.0
 10
1.646075
 20
8.718179
 30
0.0
 10
1.634639
 20
8.661903
 30
0.0
 10
1.593202
 20
8.620442
 30
0.0
 10
1.536832
 20
8.609015
 30
0.0
 10
1.480906
 20
8.620447
 30
0.0
 10
1.438254
 20
8.661908
 30
0.0
 10
1.433952
 20
8.698852
 30
0.0
 10
1.431700
 20
8.718192
 30
0.0
 11
1.431700
 21
8.718192
 31
0.0
 11
1.444951
 21
8.773508
 31
0.0
 11
1.481579
 21
8.810135
 31
0.0
 11
1.536895
 21
8.823386
 31
0.0
 11
1.592250
 21
8.810135
 31
0.0
 11
1.628892
 21
8.773508
 31
0.0
 11
1.642145
 21
8.718192
 31
0.0
 11
1.628892
 21
8.662837
 31
0.0
 11
1.592250
 21
8.626195
 31
0.0
 11
1.536895
 21
8.612942
 31
0.0
 11
1.481579
 21
8.626195
 31
0.0
 11
1.444951
 21
8.662837
 31
0.0
 11
1.431700
 21
8.718192
 31
0.0
  0
LINE
  5
1e4
100
AcDbEntity
  8
Layer_1
 62
7
100
AcDbLine
 10
1.545256
 20
8.716025
 30
0.0
 11
1.545256
 21
8.716025
 31
0.0
  0
LINE
  5
1e5
100
AcDbEntity
  8
Layer_1
 62
1
100
AcDbLine
 10
1.131621
 20
9.160686
 30
0.0
 11
0.655689
 21
8.778074
 31
0.0
  0
LINE
  5
1e6
100
AcDbEntity
  8
Layer_1
 62
1
100
AcDbLine
 10
0.655689
 20
8.778074
 30
0.0
 11
0.991641
 21
8.778074
 31
0.0
  0
SPLINE
  5
1e7
100
AcDbEntity
  8
Layer_1
 62
7
100
AcDbSpline
 70
0
 71
3
 72
19
 73
15
 74
13
 40
0.000000
 40
0.000000
 40
0.000000
 40
0.000000
 40
0.004461
 40
0.009016
 40
0.013919
 40
0.018821
 40
0.023376
 40
0.027838
 40
0.032333
 40
0.036893
 40
0.041795
 40
0.046697
 40
0.051257
 40
0.055753
 40
0.055753
 40
0.055753
 40
0.055753
 10
1.545256
 20
8.716025
 30
0.0
 10
1.544983
 20
8.714521
 30
0.0
 10
1.544430
 20
8.711483
 30
0.0
 10
1.540608
 20
8.708308
 30
0.0
 10
1.535822
 20
8.707162
 30
0.0
 10
1.530975
 20
8.708308
 30
0.0
 10
1.527322
 20
8.711483
 30
0.0
 10
1.525896
 20
8.716036
 30
0.0
 10
1.527315
 20
8.720595
 30
0.0
 10
1.530971
 20
8.723787
 30
0.0
 10
1.535822
 20
8.724928
 30
0.0
 10
1.540611
 20
8.723787
 30
0.0
 10
1.544438
 20
8.720595
 30
0.0
 10
1.544985
 20
8.717541
 30
0.0
 10
1.545256
 20
8.716025
 30
0.0
 11
1.545256
 21
8.716025
 31
0.0
 11
1.543965
 21
8.711754
 31
0.0
 11
1.540575
 21
8.708712
 31
0.0
 11
1.535812
 21
8.707553
 31
0.0
 11
1.531048
 21
8.708712
 31
0.0
 11
1.527658
 21
8.711754
 31
0.0
 11
1.526367
 21
8.716025
 31
0.0
 11
1.527658
 21
8.720331
 31
0.0
 11
1.531048
 21
8.723381
 31
0.0
 11
1.535812
 21
8.724539
 31
0.0
 11
1.540575
 21
8.723381
 31
0.0
 11
1.543965
 21
8.720331
 31
0.0
 11
1.545256
 21
8.716025
 31
0.0
  0
ENDSEC
  0
SECTION
  2
OBJECTS
  0
DICTIONARY
  5
C
330
0
100
AcDbDictionary
  3
ACAD_GROUP
350
D
  3
ACAD_MLINESTYLE
350
17
  0
DICTIONARY
  5
D
330
C
100
AcDbDictionary
  0
DICTIONARY
  5
1A
330
C
100
AcDbDictionary
  0
DICTIONARY
  5
17
330
C
100
AcDbDictionary
  3
STANDARD
350
18
  0
DICTIONARY
  5
19
330
C
100
AcDbDictionary
  0
ENDSEC
  0
EOF
